<?xml version="1.0" encoding="UTF-8"?>
<svg xmlns="http://www.w3.org/2000/svg" xmlns:xlink="http://www.w3.org/1999/xlink" width="24px" height="24px" viewBox="0 0 45 34" version="1.1">
<g id="surface1">
<path style=" stroke:none;fill-rule:nonzero;fill:rgb(100%,100%,100%);fill-opacity:1;" d="M 38.078125 2.847656 C 35.128906 1.5 32.015625 0.539062 28.820312 0 C 28.382812 0.78125 27.984375 1.585938 27.632812 2.410156 C 24.226562 1.898438 20.761719 1.898438 17.355469 2.410156 C 17.003906 1.585938 16.609375 0.78125 16.171875 0 C 12.972656 0.546875 9.855469 1.503906 6.902344 2.855469 C 1.042969 11.519531 -0.542969 19.972656 0.25 28.300781 C 3.683594 30.835938 7.523438 32.761719 11.605469 34 C 12.527344 32.765625 13.339844 31.453125 14.039062 30.078125 C 12.710938 29.585938 11.429688 28.972656 10.207031 28.253906 C 10.53125 28.019531 10.84375 27.78125 11.148438 27.546875 C 18.339844 30.925781 26.660156 30.925781 33.851562 27.546875 C 34.160156 27.796875 34.472656 28.035156 34.792969 28.253906 C 33.570312 28.972656 32.285156 29.585938 30.953125 30.082031 C 31.652344 31.457031 32.464844 32.765625 33.386719 34 C 37.472656 32.769531 41.316406 30.839844 44.75 28.304688 C 45.683594 18.644531 43.15625 10.269531 38.078125 2.847656 Z M 15.042969 23.179688 C 12.832031 23.179688 11.003906 21.171875 11.003906 18.699219 C 11.003906 16.230469 12.769531 14.207031 15.039062 14.207031 C 17.308594 14.207031 19.121094 16.230469 19.082031 18.699219 C 19.042969 21.171875 17.300781 23.179688 15.042969 23.179688 Z M 29.957031 23.179688 C 27.738281 23.179688 25.917969 21.171875 25.917969 18.699219 C 25.917969 16.230469 27.683594 14.207031 29.957031 14.207031 C 32.230469 14.207031 34.027344 16.230469 33.992188 18.699219 C 33.953125 21.171875 32.210938 23.179688 29.957031 23.179688 Z M 29.957031 23.179688 "/>
</g>
</svg>
